Coordinates
version=1
nRows=10
nColumns=63
inDegrees=yes

Units are S.I. units (second, meters, Newtons, ...)
If the header above contains a line with 'inDegrees', this indicates whether rotational values are in degrees (yes) or radians (no).

endheader
time	pelvis_tilt	pelvis_list	pelvis_rotation	pelvis_tx	pelvis_ty	pelvis_tz	hip_flexion_r	hip_adduction_r	hip_rotation_r	knee_angle_r	knee_angle_r_beta	ankle_angle_r	subtalar_angle_r	mtp_angle_r	hip_flexion_l	hip_adduction_l	hip_rotation_l	knee_angle_l	knee_angle_l_beta	ankle_angle_l	subtalar_angle_l	mtp_angle_l	L5_S1_Flex_Ext	L5_S1_Lat_Bending	L5_S1_axial_rotation	L4_L5_Flex_Ext	L4_L5_Lat_Bending	L4_L5_axial_rotation	L3_L4_Flex_Ext	L3_L4_Lat_Bending	L3_L4_axial_rotation	L2_L3_Flex_Ext	L2_L3_Lat_Bending	L2_L3_axial_rotation	L1_L2_Flex_Ext	L1_L2_Lat_Bending	L1_L2_axial_rotation	L1_T12_Flex_Ext	L1_T12_Lat_Bending	L1_T12_axial_rotation	Abs_r3	Abs_r2	Abs_r1	Abs_t1	Abs_t2	neck_flexion	neck_bending	neck_rotation	arm_flex_r	arm_add_r	arm_rot_r	elbow_flex_r	pro_sup_r	wrist_flex_r	wrist_dev_r	arm_flex_l	arm_add_l	arm_rot_l	elbow_flex_l	pro_sup_l	wrist_flex_l	wrist_dev_l
      7.50000000	    -49.86849033	      1.69335647	      4.74126012	     -0.36103381	      0.98648367	      0.04744074	    101.68233256	    -12.46546249	     -6.85043416	     55.61733863	      0.97070568	      0.27394774	      0.02400646	      0.00000000	    120.22034013	     -7.60830153	      3.01752049	    111.98312585	      1.95447425	      8.23276834	     10.02341652	      0.00000000	     -0.08831847	     -0.57773486	     -0.57926930	     -0.16401623	     -0.76838737	     -0.61547363	     -0.14509841	     -1.40470455	     -0.61547363	     -0.10093918	     -1.40470455	     -0.50686064	     -0.08201253	     -1.17811694	     -0.47065631	     -0.05046517	     -0.89491131	     -0.43445197	     -0.63084999	     -6.53545234	     -3.22172206	      0.00000000	      0.00000000	     -0.00000000	      0.00000000	      0.00000000	     65.20626016	     -7.74808336	      4.53047406	     35.12562052	     19.92122922	      0.00000000	      5.00000014	     70.82992479	     -7.95063979	     13.12565099	     32.29271540	     27.17906598	      0.00000000	      5.00000014
      7.50800000	    -49.79329920	      1.73916920	      4.42601734	     -0.36002155	      0.98640992	      0.04795540	     99.98517074	    -12.06034293	     -7.19729168	     54.07010777	      0.94370141	      0.13917171	      0.22533135	      0.00000000	    121.73811148	     -7.94291613	      3.43413138	    113.28928952	      1.97727111	      8.92939704	     10.36866110	      0.00000000	     -0.08656227	     -0.59722020	     -0.49394457	     -0.16075480	     -0.79430287	     -0.52481611	     -0.14221316	     -1.45208119	     -0.52481611	     -0.09893202	     -1.45208119	     -0.43220150	     -0.08038173	     -1.21785143	     -0.40132996	     -0.04946168	     -0.92509409	     -0.37045843	     -0.61830565	     -6.75587435	     -2.74717152	      0.00000000	      0.00000000	     -0.00000000	      0.00000000	      0.00000000	     64.95013923	     -7.89866519	      4.23413505	     35.16551536	     19.79570515	      0.00000000	      5.00000014	     70.81582116	     -7.88096158	     13.67810715	     32.29360318	     27.22323224	      0.00000000	      5.00000014
      7.51700000	    -49.79080578	      2.05324890	      4.70277897	     -0.35922515	      0.98658677	      0.04771886	     98.55972072	    -12.25947091	     -7.18693640	     52.77424092	      0.92108426	     -0.09551676	      0.18452926	      0.00000000	    123.09353686	     -7.86332456	      3.16524045	    114.18355615	      1.99287901	      9.33011555	     10.38849447	      0.00000000	     -0.08713368	     -0.65265090	     -0.53138058	     -0.16181595	     -0.86802569	     -0.56459186	     -0.14315192	     -1.58685539	     -0.56459186	     -0.09958508	     -1.58685539	     -0.46495800	     -0.08091233	     -1.33088571	     -0.43174672	     -0.04978818	     -1.01095624	     -0.39853543	     -0.62238714	     -7.38291747	     -2.95537935	      0.00000000	      0.00000000	     -0.00000000	      0.00000000	      0.00000000	     64.73680772	     -7.95878446	      4.15539555	     35.16288042	     19.79110349	      0.00000000	      5.00000014	     70.84997758	     -7.86122376	     13.83393375	     32.34970449	     27.25425870	      0.00000000	      5.00000014
      7.52500000	    -49.75174185	      2.24592009	      4.58700463	     -0.35835473	      0.98657975	      0.04782505	     97.12216360	    -12.04651332	     -7.27441887	     51.59779433	      0.90055140	     -0.36764803	     -0.21738842	      0.00000000	    124.52588347	     -8.10085898	      3.20939290	    115.10093241	      2.00889024	      9.81588878	     10.47686078	      0.00000000	     -0.08725893	     -0.68873802	     -0.48842439	     -0.16204856	     -0.91602157	     -0.51895091	     -0.14335770	     -1.67459763	     -0.51895091	     -0.09972823	     -1.67459763	     -0.42737134	     -0.08102864	     -1.40447458	     -0.39684481	     -0.04985975	     -1.06685520	     -0.36631829	     -0.62328183	     -7.79114228	     -2.71646990	      0.00000000	      0.00000000	     -0.00000000	      0.00000000	      0.00000000	     64.50560948	     -8.02189400	      3.79137131	     35.25636047	     19.62124586	      0.00000000	      5.00000014	     70.88554024	     -7.86456977	     14.44712832	     32.36598357	     27.28916954	      0.00000000	      5.00000014
      7.53300000	    -49.75812343	      2.59984226	      4.74215778	     -0.35759883	      0.98669613	      0.04757849	     95.89993535	    -12.10349783	     -7.11485544	     50.68716590	      0.88465793	     -0.79077015	     -0.90321610	      0.00000000	    125.83975911	     -8.21492689	      2.86618098	    115.73721936	      2.01999554	     10.17383999	     10.46592427	      0.00000000	     -0.08572680	     -0.74597902	     -0.50074417	     -0.15920324	     -0.99215209	     -0.53204068	     -0.14084056	     -1.81377338	     -0.53204068	     -0.09797716	     -1.81377338	     -0.43815115	     -0.07960591	     -1.52120041	     -0.40685464	     -0.04898429	     -1.15552150	     -0.37555813	     -0.61233795	     -8.43866383	     -2.78498885	      0.00000000	      0.00000000	     -0.00000000	      0.00000000	      0.00000000	     64.26068088	     -8.01941463	      3.40515424	     35.35544481	     19.37439145	      0.00000000	      5.00000014	     70.96790156	     -7.93892924	     15.14212658	     32.34539159	     27.29460010	      0.00000000	      5.00000014
      7.54200000	    -49.75578967	      2.94559640	      5.01261714	     -0.35683605	      0.98678594	      0.04696637	     94.76872453	    -12.36660809	     -6.97349446	     50.02753128	      0.87314514	     -0.99265128	     -1.10182660	      0.00000000	    127.09875390	     -8.15985574	      2.47712390	    116.21577963	      2.02834800	     10.44856387	     10.40888929	      0.00000000	     -0.08640155	     -0.80087896	     -0.53918181	     -0.16045631	     -1.06516902	     -0.57288068	     -0.14194910	     -1.94725711	     -0.57288068	     -0.09874833	     -1.94725711	     -0.47178409	     -0.08023248	     -1.63315238	     -0.43808522	     -0.04936984	     -1.24056151	     -0.40438636	     -0.61715760	     -9.05970299	     -2.99876749	      0.00000000	      0.00000000	     -0.00000000	      0.00000000	      0.00000000	     64.05927399	     -8.05848555	      3.33617557	     35.37436202	     19.35705366	      0.00000000	      5.00000014	     70.96307758	     -7.92497455	     15.28678268	     32.38439461	     27.31359864	      0.00000000	      5.00000014
      7.55000000	    -49.74068066	      3.19040704	      5.21865889	     -0.35612050	      0.98667010	      0.04625815	     93.84878695	    -12.60462387	     -6.83071761	     49.86665427	      0.87033730	     -1.17911176	     -1.17919273	      0.00000000	    128.37722419	     -8.14027364	      2.16586352	    116.61502356	      2.03531612	     10.70690397	     10.35660870	      0.00000000	     -0.08587316	     -0.83899512	     -0.56307480	     -0.15947504	     -1.11586351	     -0.59826697	     -0.14108101	     -2.03993274	     -0.59826697	     -0.09814443	     -2.03993274	     -0.49269045	     -0.07974182	     -1.71087885	     -0.45749827	     -0.04906792	     -1.29960344	     -0.42230610	     -0.61338339	     -9.49088061	     -3.13165310	      0.00000000	      0.00000000	     -0.00000000	      0.00000000	      0.00000000	     63.91047377	     -8.11310891	      3.30014512	     35.35116534	     19.37673806	      0.00000000	      5.00000014	     70.93937939	     -7.87234851	     15.35095506	     32.42868156	     27.33761966	      0.00000000	      5.00000014
      7.55800000	    -49.74200407	      3.45053193	      5.39179747	     -0.35548110	      0.98667660	      0.04552658	     92.95584879	    -12.81229259	     -6.68481590	     49.70417762	      0.86750155	     -1.36349807	     -1.30453312	      0.00000000	    129.56623472	     -8.13304158	      1.84062877	    116.81161391	      2.03874727	     10.92640085	     10.30344008	      0.00000000	     -0.08573255	     -0.87827651	     -0.58546264	     -0.15921392	     -1.16810776	     -0.62205406	     -0.14085001	     -2.13544150	     -0.62205406	     -0.09798374	     -2.13544150	     -0.51227981	     -0.07961125	     -1.79098146	     -0.47568840	     -0.04898758	     -1.36045031	     -0.43909698	     -0.61237906	     -9.93523953	     -3.25616759	      0.00000000	      0.00000000	     -0.00000000	      0.00000000	      0.00000000	     63.76134099	     -8.15323373	      3.26243248	     35.35911097	     19.40083216	      0.00000000	      5.00000014	     70.89107818	     -7.82638469	     15.42850011	     32.46697256	     27.36568826	      0.00000000	      5.00000014
      7.56700000	    -49.87270251	      4.42291214	      5.75901287	     -0.35501926	      0.98704694	      0.04535575	     92.45487208	    -13.00649651	     -5.65055736	     49.62021254	      0.86603608	     -2.42136802	     -3.57147297	      0.00000000	    130.39633319	     -8.46241910	      0.73071450	    116.61213994	      2.03526579	     10.85745002	     10.19095161	      0.00000000	     -0.08667750	     -1.02204239	     -0.63775887	     -0.16096878	     -1.35931638	     -0.67761880	     -0.14240246	     -2.48499387	     -0.67761880	     -0.09906371	     -2.48499387	     -0.55803902	     -0.08048872	     -2.08414884	     -0.51817909	     -0.04952752	     -1.58314366	     -0.47831916	     -0.61912869	    -11.56154794	     -3.54702353	      0.00000000	      0.00000000	     -0.00000000	      0.00000000	      0.00000000	     63.32578231	     -7.96492933	      2.53967840	     35.83303346	     19.16075149	      0.00000000	      5.00000014	     71.17812292	     -8.04968591	     16.55502901	     32.36193470	     27.46411244	      0.00000000	      5.00000014
      7.57500000	    -49.89253339	      4.58760575	      5.81044617	     -0.35460373	      0.98715041	      0.04466317	     91.76359973	    -13.11329369	     -5.53293654	     49.78239628	      0.86886672	     -2.60298540	     -3.60015181	      0.00000000	    131.42248540	     -8.48125103	      0.49605077	    116.45933778	      2.03259889	     11.02345299	     10.12540926	      0.00000000	     -0.08660935	     -1.04578683	     -0.64283184	     -0.16084223	     -1.39089648	     -0.68300883	     -0.14229051	     -2.54272610	     -0.68300883	     -0.09898583	     -2.54272610	     -0.56247786	     -0.08042545	     -2.13256851	     -0.52230087	     -0.04948859	     -1.61992380	     -0.48212388	     -0.61864196	    -11.83014979	     -3.57523785	      0.00000000	      0.00000000	     -0.00000000	      0.00000000	      0.00000000	     63.25814162	     -7.96116430	      2.49439484	     35.81435183	     19.18547380	      0.00000000	      5.00000014	     71.13419771	     -8.00619992	     16.64020101	     32.38596963	     27.49407832	      0.00000000	      5.00000014
